<svg xmlns="http://www.w3.org/2000/svg" width="22" height="31" viewBox="0 0 22 31" fill="none">
  <g clip-path="url(#clip0_29_14444)">
    <path d="M4.84709 18.9815C5.14018 19.3996 5.47302 19.7881 5.84091 20.1414C6.75453 21.2943 7.33688 22.3141 7.47985 23.022C7.4976 23.1795 7.52793 23.3354 7.57051 23.488V27.3602C7.57051 27.5461 7.64399 27.7244 7.77478 27.8558C7.90557 27.9873 8.08296 28.0611 8.26793 28.0611H8.29233C8.36439 28.7332 8.68108 29.3547 9.18153 29.8064C9.68199 30.258 10.3309 30.5078 11.0035 30.5078C11.6762 30.5078 12.3251 30.258 12.8255 29.8064C13.326 29.3547 13.6427 28.7332 13.7147 28.0611C13.8997 28.0611 14.0771 27.9873 14.2079 27.8558C14.3387 27.7244 14.4122 27.5461 14.4122 27.3602V23.5476C14.4469 23.4326 14.4748 23.3155 14.4959 23.1972C14.5171 23.153 14.5312 23.1056 14.5377 23.057C14.6772 22.3246 15.2874 21.2628 16.2568 20.0608C16.5449 19.7745 16.8107 19.4664 17.0519 19.1392L17.1042 19.0797C17.1689 19.0133 17.2199 18.9347 17.2541 18.8484C18.0083 17.7059 18.4383 16.3784 18.4978 15.0086C18.5574 13.6389 18.2442 12.2787 17.5919 11.0745C16.9397 9.87026 15.9732 8.86754 14.7962 8.17411C13.6192 7.48067 12.2764 7.12277 10.9122 7.13895C9.54797 7.15514 8.21395 7.54478 7.05361 8.26595C5.89327 8.98711 4.95053 10.0125 4.32678 11.2319C3.70302 12.4512 3.42187 13.8184 3.51355 15.1864C3.60523 16.5543 4.06627 17.8713 4.84709 18.9956V18.9815ZM10.9983 24.0943H13.0243V26.6594H8.95837V24.0943H10.9983ZM10.9983 29.1054C10.6945 29.1048 10.3999 29.0004 10.1629 28.8094C9.92591 28.6184 9.76061 28.352 9.69415 28.0541H12.306C12.2394 28.3526 12.0736 28.6194 11.8359 28.8105C11.5981 29.0016 11.3027 29.1056 10.9983 29.1054ZM10.9983 8.52132C12.1161 8.52049 13.2127 8.82767 14.1689 9.40945C15.125 9.99124 15.9042 10.8253 16.4215 11.8211C16.9389 12.8168 17.1746 13.936 17.1032 15.057C17.0317 16.178 16.6558 17.2578 16.0162 18.1791L15.9848 18.2281L15.9535 18.2702C15.7432 18.5574 15.5099 18.827 15.256 19.0762C15.2386 19.0972 15.2177 19.1147 15.2037 19.1357C14.1123 20.4813 13.4602 21.6448 13.2126 22.6014C13.1972 22.6343 13.1844 22.6682 13.1742 22.7031H11.6957V19.5072C11.6957 19.3213 11.6222 19.143 11.4914 19.0116C11.3607 18.8802 11.1833 18.8063 10.9983 18.8063C10.8133 18.8063 10.636 18.8802 10.5052 19.0116C10.3744 19.143 10.3009 19.3213 10.3009 19.5072V22.6996H8.82238C8.62012 21.7464 7.97152 20.5795 6.89053 19.2268C6.86997 19.2009 6.84657 19.1774 6.82078 19.1568C6.50791 18.8595 6.2263 18.5307 5.9804 18.1755C5.34181 17.2543 4.96667 16.1748 4.89572 15.0544C4.82477 13.9339 5.06073 12.8154 5.57797 11.8203C6.0952 10.8251 6.87393 9.99144 7.82954 9.40984C8.78516 8.82823 9.8811 8.52094 10.9983 8.52132Z" fill="white"/>
    <path d="M10.9982 5.22017C11.1832 5.22017 11.3606 5.14632 11.4913 5.01488C11.6221 4.88345 11.6956 4.70519 11.6956 4.51932V1.19377C11.6956 1.00789 11.6221 0.829641 11.4913 0.698205C11.3606 0.56677 11.1832 0.49292 10.9982 0.49292C10.8132 0.49292 10.6358 0.56677 10.5051 0.698205C10.3743 0.829641 10.3008 1.00789 10.3008 1.19377V4.51581C10.3003 4.60814 10.318 4.69965 10.3529 4.78509C10.3877 4.87052 10.439 4.94819 10.5038 5.01364C10.5686 5.07909 10.6457 5.13104 10.7305 5.16648C10.8153 5.20192 10.9063 5.22017 10.9982 5.22017Z" fill="white"/>
    <path d="M20.8145 4.02866L17.3274 7.53292C17.2328 7.63126 17.1689 7.75529 17.1435 7.88968C17.1182 8.02407 17.1326 8.16297 17.1848 8.28926C17.2371 8.41555 17.325 8.52372 17.4377 8.60041C17.5504 8.67711 17.683 8.71897 17.819 8.72087C17.9098 8.72165 17.9998 8.70407 18.0837 8.66916C18.1676 8.63424 18.2436 8.58271 18.3072 8.51764L21.7943 5.01338C21.8713 4.95195 21.9345 4.87487 21.9797 4.78718C22.025 4.69949 22.0513 4.60317 22.0569 4.50455C22.0625 4.40593 22.0473 4.30725 22.0123 4.21495C21.9773 4.12265 21.9232 4.03883 21.8537 3.96899C21.7842 3.89914 21.7008 3.84482 21.609 3.80964C21.5171 3.77446 21.4189 3.75918 21.3208 3.76481C21.2226 3.77045 21.1268 3.7969 21.0396 3.84237C20.9523 3.88784 20.8756 3.95131 20.8145 4.02866Z" fill="white"/>
    <path d="M3.69978 8.52828C3.83054 8.65861 4.00729 8.73166 4.19146 8.73151C4.28224 8.73228 4.37224 8.71467 4.45612 8.67975C4.53999 8.64483 4.61601 8.59334 4.67965 8.52828C4.80848 8.39711 4.88072 8.22022 4.88072 8.03592C4.88072 7.85162 4.80848 7.67472 4.67965 7.54356L1.19256 4.0393C1.13091 3.96364 1.05419 3.90178 0.967321 3.85771C0.880457 3.81363 0.785373 3.7883 0.688188 3.78336C0.591004 3.77843 0.493866 3.794 0.403022 3.82905C0.312178 3.8641 0.229639 3.91787 0.16071 3.98689C0.0917799 4.05592 0.0379847 4.13866 0.00278641 4.22982C-0.0324119 4.32099 -0.0482322 4.41853 -0.0436647 4.51621C-0.0390973 4.61389 -0.0142445 4.70955 0.0293056 4.797C0.0728557 4.88445 0.134137 4.96179 0.209204 5.02401L3.69978 8.52828Z" fill="white"/>
  </g>
  <defs>
    <clipPath id="clip0_29_14444">
      <rect width="22" height="30" fill="white" transform="translate(0 0.5)"/>
    </clipPath>
  </defs>
</svg>