<svg xmlns="http://www.w3.org/2000/svg" width="31" height="25" viewBox="0 0 31 25" fill="none">
  <g clip-path="url(#clip0_29_14457)">
    <path d="M27.4996 15.1304V11.9746L30.6876 10.1568C30.7835 10.1011 30.863 10.0216 30.9183 9.9261C30.9735 9.83061 31.0026 9.72248 31.0026 9.61244C31.0026 9.50239 30.9735 9.39426 30.9183 9.29877C30.863 9.20328 30.7835 9.12374 30.6876 9.06805L15.822 0.572595C15.7251 0.517199 15.6152 0.488037 15.5032 0.488037C15.3913 0.488037 15.2814 0.517199 15.1844 0.572595L0.318852 9.06805C0.222973 9.12374 0.143462 9.20328 0.0882175 9.29877C0.0329731 9.39426 0.00390625 9.50239 0.00390625 9.61244C0.00390625 9.72248 0.0329731 9.83061 0.0882175 9.9261C0.143462 10.0216 0.222973 10.1011 0.318852 10.1568L6.87974 13.9059L6.86378 19.255C6.86378 20.7193 7.82019 22.0732 9.5417 23.061C11.3755 24.0357 13.4318 24.5269 15.5128 24.4874C17.7444 24.4874 19.874 23.9793 21.4743 23.0578C23.1672 22.0827 24.1076 20.7477 24.1108 19.3024L24.1267 13.9028L26.2308 12.7004V15.1178C25.7112 15.5596 24.6081 16.642 24.6081 17.9769C24.6081 18.9679 25.539 19.6653 26.8684 19.6653C28.1978 19.6653 29.1255 18.9679 29.1255 17.9769C29.1255 16.6547 28.0257 15.5722 27.4996 15.1304ZM22.842 19.3087C22.842 20.2901 22.1247 21.24 20.8367 21.9817C19.4277 22.7927 17.5372 23.244 15.5128 23.244C13.653 23.2825 11.8144 22.8479 10.1729 21.9817C8.85628 21.2274 8.12943 20.2649 8.13581 19.2677V14.6381L15.1844 18.6775C15.2814 18.7329 15.3913 18.7621 15.5032 18.7621C15.6152 18.7621 15.7251 18.7329 15.822 18.6775L22.8707 14.6412L22.842 19.3087ZM15.5096 17.3931L1.91285 9.62032L15.5096 1.8507L29.1096 9.62032L26.6484 11.0278L15.8093 8.53472C15.6462 8.49862 15.4754 8.52735 15.3335 8.61469C15.1916 8.70204 15.09 8.84104 15.0505 9.00179C15.0131 9.16367 15.0417 9.33362 15.13 9.4748C15.2183 9.61599 15.3593 9.71703 15.5224 9.75603L25.0385 11.9493L15.5096 17.3931ZM26.878 18.4187C26.3998 18.4187 25.8865 18.2452 25.8865 17.9864C25.8865 17.3237 26.438 16.6546 26.878 16.2507C27.2765 16.6231 27.8663 17.2858 27.8663 17.9864C27.8567 18.2483 27.3339 18.4219 26.8684 18.4219L26.878 18.4187Z" fill="white"/>
  </g>
  <defs>
    <clipPath id="clip0_29_14457">
      <rect width="31" height="24" fill="white" transform="translate(0 0.5)"/>
    </clipPath>
  </defs>
</svg>