<svg xmlns="http://www.w3.org/2000/svg" width="24" height="24" viewBox="0 0 24 24" fill="none">
  <g clip-path="url(#clip0_29_14471)">
    <path d="M25.9583 23.7898C25.8447 23.3642 25.6173 22.9774 25.3006 22.6712L21.7493 19.1202C21.3093 18.6802 20.7598 18.4189 20.2778 18.4189C20.165 18.4186 20.0528 18.4343 19.9444 18.4655L17.3301 15.8514C18.7806 13.9026 19.4397 11.4772 19.1752 9.06244C18.9107 6.64766 17.7421 4.42243 15.9042 2.83384C14.0663 1.24525 11.6953 0.411001 9.2675 0.498708C6.83972 0.586414 4.53508 1.58958 2.81661 3.30665C1.09814 5.02371 0.0931676 7.32746 0.00361315 9.75504C-0.0859413 12.1826 0.746548 14.5541 2.33383 16.3931C3.92112 18.2321 6.14559 19.4024 8.56031 19.6687C10.975 19.935 13.4011 19.2777 15.351 17.8289L17.9668 20.4445C17.9064 20.6687 17.9064 20.9049 17.9668 21.1292C18.0803 21.5552 18.3083 21.942 18.626 22.2478L22.1758 25.7988C22.6157 26.2373 23.1653 26.5 23.6473 26.5C23.7815 26.5044 23.9153 26.4818 24.0407 26.4336C24.166 26.3853 24.2804 26.3125 24.3771 26.2192L25.7285 24.8679C25.9748 24.6156 26.0619 24.2238 25.9583 23.7898ZM9.61347 19.1352C7.52693 19.1354 5.50484 18.4122 3.89178 17.0888C2.27871 15.7653 1.17448 13.9236 0.767229 11.8773C0.359982 9.83096 0.674921 7.70677 1.65838 5.86663C2.64185 4.0265 4.23298 2.58429 6.16066 1.78576C8.08833 0.987219 10.2333 0.881766 12.23 1.48736C14.2267 2.09296 15.9517 3.37213 17.1109 5.10692C18.2701 6.84171 18.792 8.92476 18.5874 11.0011C18.3829 13.0775 17.4647 15.0187 15.9892 16.494C15.1535 17.3329 14.1596 17.9977 13.0652 18.45C11.9709 18.9023 10.7976 19.1332 9.61347 19.1292V19.1352ZM15.821 17.461C16.0238 17.2883 16.222 17.1081 16.4112 16.9159C16.6004 16.7237 16.7821 16.5301 16.9547 16.3274L19.4399 18.8123L18.3062 19.946L15.821 17.461ZM25.2991 24.455L23.9476 25.8063C23.8649 25.8789 23.7573 25.9166 23.6473 25.9114C23.3245 25.9114 22.9235 25.7072 22.5962 25.3844L19.0435 21.8334C18.806 21.6044 18.6339 21.3162 18.5449 20.9985C18.5138 20.9117 18.5047 20.8186 18.5183 20.7274C18.5319 20.6363 18.5679 20.5499 18.623 20.476L19.9744 19.1247C20.0161 19.0874 20.0648 19.0588 20.1176 19.0408C20.1705 19.0227 20.2265 19.0155 20.2823 19.0195C20.6036 19.0195 21.006 19.2192 21.3334 19.5451L24.8846 23.0961C25.123 23.3247 25.2957 23.613 25.3847 23.931C25.4143 24.0176 25.4221 24.1103 25.4071 24.2008C25.3922 24.2912 25.3551 24.3764 25.2991 24.449V24.455Z" fill="white"/>
  </g>
  <defs>
    <clipPath id="clip0_29_14471">
      <rect width="24" height="24" fill="white" transform="translate(0 0.5)"/>
    </clipPath>
  </defs>
</svg>