<svg width="18" height="18" viewBox="0 0 18 18" fill="none" xmlns="http://www.w3.org/2000/svg">
<path d="M9.00026 4.29004C12.0972 4.29004 14.6077 6.80055 14.6077 9.89746V13.9932C14.6077 14.1423 14.5484 14.2854 14.4429 14.3909C14.3374 14.4964 14.1944 14.5557 14.0452 14.5557H3.95534C3.80615 14.5557 3.66308 14.4964 3.55759 14.3909C3.4521 14.2854 3.39284 14.1423 3.39284 13.9932V9.89746C3.39284 6.80055 5.90334 4.29004 9.00026 4.29004ZM8.50807 1.19629H9.49244C9.52974 1.19629 9.56551 1.2111 9.59188 1.23748C9.61825 1.26385 9.63307 1.29962 9.63307 1.33691V3.02441C9.63307 3.06171 9.61825 3.09748 9.59188 3.12385C9.56551 3.15022 9.52974 3.16504 9.49244 3.16504H8.50807C8.47077 3.16504 8.435 3.15022 8.40863 3.12385C8.38226 3.09748 8.36744 3.06171 8.36744 3.02441V1.33691C8.36744 1.29962 8.38226 1.26385 8.40863 1.23748C8.435 1.2111 8.47077 1.19629 8.50807 1.19629ZM3.11598 3.37C3.12904 3.35693 3.14455 3.34655 3.16162 3.33948C3.17869 3.3324 3.19699 3.32876 3.21547 3.32876C3.23395 3.32876 3.25225 3.3324 3.26932 3.33948C3.28639 3.34655 3.3019 3.35693 3.31496 3.37L4.50817 4.5632C4.53452 4.58957 4.54932 4.62533 4.54932 4.66261C4.54932 4.69989 4.53452 4.73564 4.50817 4.76201L3.81207 5.45811C3.7857 5.48446 3.74995 5.49926 3.71267 5.49926C3.67539 5.49926 3.63963 5.48446 3.61326 5.45811L2.42006 4.2649C2.39371 4.23853 2.37891 4.20278 2.37891 4.1655C2.37891 4.12822 2.39371 4.09246 2.42006 4.06609L3.11616 3.37H3.11598ZM14.8863 3.37L15.5824 4.06609C15.6087 4.09246 15.6235 4.12817 15.6235 4.16541C15.6235 4.20265 15.6087 4.23836 15.5824 4.26473L14.3892 5.45828C14.3761 5.47136 14.3606 5.48173 14.3435 5.48881C14.3265 5.49588 14.3082 5.49953 14.2897 5.49953C14.2712 5.49953 14.2529 5.49588 14.2358 5.48881C14.2188 5.48173 14.2033 5.47136 14.1902 5.45828L13.4941 4.76219C13.481 4.74913 13.4707 4.73362 13.4636 4.71655C13.4565 4.69947 13.4529 4.68118 13.4529 4.6627C13.4529 4.64422 13.4565 4.62592 13.4636 4.60884C13.4707 4.59177 13.481 4.57626 13.4941 4.5632L14.6875 3.37C14.7139 3.34365 14.7496 3.32884 14.7869 3.32884C14.8242 3.32884 14.8599 3.34365 14.8863 3.37ZM3.37526 15.6807H14.6253C14.7744 15.6807 14.9175 15.7399 15.023 15.8454C15.1285 15.9509 15.1878 16.094 15.1878 16.2432V16.665C15.1878 16.7023 15.1729 16.7381 15.1466 16.7645C15.1202 16.7908 15.0844 16.8057 15.0471 16.8057H2.95338C2.91609 16.8057 2.88032 16.7908 2.85395 16.7645C2.82757 16.7381 2.81276 16.7023 2.81276 16.665V16.2432C2.81276 16.094 2.87202 15.9509 2.97751 15.8454C3.083 15.7399 3.22607 15.6807 3.37526 15.6807ZM5.97682 10.1084V14.5557H7.10182V10.1084H5.97682Z" fill="#1E73BE"/>
</svg>
