<svg xmlns="http://www.w3.org/2000/svg" width="24px" height="24px" viewBox="0 0 24 24" fill="none">
  <g clip-path="url(#clip0_29_14493)">
    <path d="M12 2.5C14.717 2.5 15.056 2.51 16.122 2.56C17.187 2.61 17.912 2.777 18.55 3.025C19.21 3.279 19.766 3.623 20.322 4.178C20.8305 4.6779 21.224 5.28259 21.475 5.95C21.722 6.587 21.89 7.313 21.94 8.378C21.987 9.444 22 9.783 22 12.5C22 15.217 21.99 15.556 21.94 16.622C21.89 17.687 21.722 18.412 21.475 19.05C21.2247 19.7178 20.8311 20.3226 20.322 20.822C19.822 21.3303 19.2173 21.7238 18.55 21.975C17.913 22.222 17.187 22.39 16.122 22.44C15.056 22.487 14.717 22.5 12 22.5C9.283 22.5 8.944 22.49 7.878 22.44C6.813 22.39 6.088 22.222 5.45 21.975C4.78233 21.7245 4.17753 21.3309 3.678 20.822C3.16941 20.3222 2.77593 19.7175 2.525 19.05C2.277 18.413 2.11 17.687 2.06 16.622C2.013 15.556 2 15.217 2 12.5C2 9.783 2.01 9.444 2.06 8.378C2.11 7.312 2.277 6.588 2.525 5.95C2.77524 5.28218 3.1688 4.67732 3.678 4.178C4.17767 3.66923 4.78243 3.27573 5.45 3.025C6.088 2.777 6.812 2.61 7.878 2.56C8.944 2.513 9.283 2.5 12 2.5ZM12 7.5C10.6739 7.5 9.40215 8.02678 8.46447 8.96447C7.52678 9.90215 7 11.1739 7 12.5C7 13.8261 7.52678 15.0979 8.46447 16.0355C9.40215 16.9732 10.6739 17.5 12 17.5C13.3261 17.5 14.5979 16.9732 15.5355 16.0355C16.4732 15.0979 17 13.8261 17 12.5C17 11.1739 16.4732 9.90215 15.5355 8.96447C14.5979 8.02678 13.3261 7.5 12 7.5ZM18.5 7.25C18.5 6.91848 18.3683 6.60054 18.1339 6.36612C17.8995 6.1317 17.5815 6 17.25 6C16.9185 6 16.6005 6.1317 16.3661 6.36612C16.1317 6.60054 16 6.91848 16 7.25C16 7.58152 16.1317 7.89946 16.3661 8.13388C16.6005 8.3683 16.9185 8.5 17.25 8.5C17.5815 8.5 17.8995 8.3683 18.1339 8.13388C18.3683 7.89946 18.5 7.58152 18.5 7.25ZM12 9.5C12.7956 9.5 13.5587 9.81607 14.1213 10.3787C14.6839 10.9413 15 11.7044 15 12.5C15 13.2956 14.6839 14.0587 14.1213 14.6213C13.5587 15.1839 12.7956 15.5 12 15.5C11.2044 15.5 10.4413 15.1839 9.87868 14.6213C9.31607 14.0587 9 13.2956 9 12.5C9 11.7044 9.31607 10.9413 9.87868 10.3787C10.4413 9.81607 11.2044 9.5 12 9.5Z" fill="#96ACBC"/>
  </g>
  <defs>
    <clipPath id="clip0_29_14493">
      <rect width="24px" height="24px" fill="white" transform="translate(0 0.5)"/>
    </clipPath>
  </defs>
</svg>