<svg xmlns="http://www.w3.org/2000/svg" width="24px" height="24px" viewBox="0 0 24 24" fill="none">
  <g clip-path="url(#clip0_29_14487)">
    <path d="M13.3701 2.59408C10.9774 2.26493 8.54634 2.81263 6.52592 4.13604C4.5055 5.45944 3.03214 7.46918 2.3779 9.79414C1.72365 12.1191 1.9327 14.6023 2.96646 16.7851C4.00021 18.968 5.78885 20.7031 8.0021 21.6701C7.94224 20.9019 7.99718 20.1291 8.1651 19.3771C8.3501 18.5381 9.4611 13.9141 9.4611 13.9141C9.23986 13.4182 9.1293 12.88 9.1371 12.3371C9.1371 10.8521 9.9941 9.74408 11.0601 9.74408C11.2516 9.74129 11.4415 9.77977 11.6168 9.85691C11.7921 9.93404 11.9487 10.048 12.076 10.1911C12.2034 10.3342 12.2984 10.503 12.3547 10.6861C12.4109 10.8691 12.4271 11.0622 12.4021 11.2521C12.4021 12.1521 11.8241 13.5141 11.5221 14.7921C11.4624 15.0265 11.4586 15.2716 11.511 15.5077C11.5635 15.7438 11.6706 15.9643 11.8239 16.1514C11.9771 16.3385 12.1722 16.487 12.3933 16.5849C12.6145 16.6828 12.8555 16.7274 13.0971 16.7151C14.9951 16.7151 16.2671 14.2841 16.2671 11.4141C16.2671 9.21408 14.8101 7.56608 12.1241 7.56608C11.4815 7.54111 10.8405 7.647 10.24 7.87733C9.63958 8.10766 9.09221 8.45762 8.63115 8.90597C8.17008 9.35431 7.80495 9.89168 7.55792 10.4855C7.31089 11.0792 7.18711 11.717 7.1941 12.3601C7.16546 13.0734 7.3956 13.773 7.8421 14.3301C7.92553 14.3924 7.98645 14.4801 8.01567 14.58C8.04489 14.6799 8.04083 14.7867 8.0041 14.8841C7.9581 15.0681 7.8421 15.5071 7.7961 15.6681C7.78653 15.7227 7.76427 15.7743 7.73112 15.8187C7.69797 15.8631 7.65484 15.8991 7.60523 15.9238C7.55561 15.9486 7.50088 15.9613 7.44545 15.961C7.39002 15.9607 7.33544 15.9473 7.2861 15.9221C5.9021 15.3681 5.2501 13.8451 5.2501 12.1061C5.2501 9.25908 7.6341 5.85108 12.4041 5.85108C16.2001 5.85108 18.7241 8.62808 18.7241 11.5981C18.7241 15.5071 16.5471 18.4461 13.3301 18.4461C12.8493 18.4614 12.3724 18.3553 11.9434 18.1375C11.5145 17.9198 11.1474 17.5973 10.8761 17.2001C10.8761 17.2001 10.2981 19.5161 10.1841 19.9541C9.95139 20.7108 9.608 21.4289 9.1651 22.0851C10.0881 22.3651 11.0471 22.5051 12.0111 22.5011C13.3247 22.5021 14.6256 22.2441 15.8393 21.7417C17.053 21.2392 18.1556 20.5024 19.0842 19.5732C20.0127 18.644 20.7488 17.5408 21.2504 16.3268C21.7519 15.1127 22.0091 13.8117 22.0071 12.4981C22.0059 10.0831 21.1309 7.75007 19.5437 5.92986C17.9566 4.10964 15.7644 2.92514 13.3721 2.59508L13.3701 2.59408Z" fill="#96ACBC"/>
  </g>
  <defs>
    <clipPath id="clip0_29_14487">
      <rect width="24px" height="24px" fill="white" transform="translate(0 0.5)"/>
    </clipPath>
  </defs>
</svg>