<svg xmlns="http://www.w3.org/2000/svg" width="24px" height="24px" viewBox="0 0 24 24" fill="none">
  <g clip-path="url(#clip0_29_14504)">
    <path d="M12 20.5C14.1217 20.5 16.1566 19.6571 17.6569 18.1569C19.1571 16.6566 20 14.6217 20 12.5C20 10.3783 19.1571 8.34344 17.6569 6.84315C16.1566 5.34285 14.1217 4.5 12 4.5C9.87827 4.5 7.84344 5.34285 6.34315 6.84315C4.84285 8.34344 4 10.3783 4 12.5C4 14.6217 4.84285 16.6566 6.34315 18.1569C7.84344 19.6571 9.87827 20.5 12 20.5ZM12 22.5C6.477 22.5 2 18.023 2 12.5C2 6.977 6.477 2.5 12 2.5C17.523 2.5 22 6.977 22 12.5C22 18.023 17.523 22.5 12 22.5ZM8.89 13.67L6.392 12.891C5.852 12.726 5.849 12.354 6.513 12.087L16.246 8.327C16.811 8.097 17.131 8.388 16.948 9.117L15.291 16.937C15.175 17.494 14.84 17.627 14.375 17.37L11.824 15.482L10.635 16.63C10.513 16.748 10.414 16.849 10.226 16.874C10.039 16.9 9.885 16.844 9.772 16.534L8.902 13.663L8.89 13.671V13.67Z" fill="black"/>
  </g>
  <defs>
    <clipPath id="clip0_29_14504">
      <rect width="24px" height="24px" fill="white" transform="translate(0 0.5)"/>
    </clipPath>
  </defs>
</svg>