<svg width="22" height="20" viewBox="0 0 22 20" fill="none" xmlns="http://www.w3.org/2000/svg">
<path d="M2.49201 7.06484L3.77801 17.9998H18.222L19.508 7.06484L15.498 9.73784L11 3.44084L6.50201 9.73784L2.49201 7.06484ZM1.80101 4.19984L6.00001 6.99984L10.186 1.13984C10.2785 1.01021 10.4006 0.904544 10.5422 0.83164C10.6838 0.758737 10.8408 0.720703 11 0.720703C11.1593 0.720703 11.3162 0.758737 11.4578 0.83164C11.5994 0.904544 11.7215 1.01021 11.814 1.13984L16 6.99984L20.2 4.19984C20.359 4.09408 20.5449 4.03604 20.7358 4.03257C20.9266 4.0291 21.1145 4.08035 21.2772 4.18026C21.4399 4.28017 21.5706 4.42456 21.6539 4.59637C21.7371 4.76819 21.7694 4.96024 21.747 5.14984L20.104 19.1168C20.0753 19.3601 19.9584 19.5844 19.7754 19.7471C19.5923 19.9099 19.3559 19.9998 19.111 19.9998H2.88901C2.64407 19.9998 2.40767 19.9099 2.22464 19.7471C2.0416 19.5844 1.92466 19.3601 1.89601 19.1168L0.253007 5.14884C0.230807 4.95932 0.263293 4.76741 0.346628 4.59576C0.429964 4.4241 0.56067 4.27987 0.723318 4.1801C0.885967 4.08032 1.07377 4.02916 1.26455 4.03266C1.45533 4.03616 1.64113 4.09417 1.80001 4.19984H1.80101ZM11 13.9998C10.4696 13.9998 9.96087 13.7891 9.58579 13.4141C9.21072 13.039 9.00001 12.5303 9.00001 11.9998C9.00001 11.4694 9.21072 10.9607 9.58579 10.5856C9.96087 10.2106 10.4696 9.99984 11 9.99984C11.5304 9.99984 12.0391 10.2106 12.4142 10.5856C12.7893 10.9607 13 11.4694 13 11.9998C13 12.5303 12.7893 13.039 12.4142 13.4141C12.0391 13.7891 11.5304 13.9998 11 13.9998Z" fill="#05B2FA"/>
</svg>
