<svg xmlns="http://www.w3.org/2000/svg" width="20px" height="20px" viewBox="0 0 18 20" fill="none">
  <path d="M9 1.25C4.16797 1.25 0.25 5.16797 0.25 10C0.25 14.832 4.16797 18.75 9 18.75C13.832 18.75 17.75 14.832 17.75 10C17.75 5.16797 13.832 1.25 9 1.25ZM9 17.2656C4.98828 17.2656 1.73438 14.0117 1.73438 10C1.73438 5.98828 4.98828 2.73438 9 2.73438C13.0117 2.73438 16.2656 5.98828 16.2656 10C16.2656 14.0117 13.0117 17.2656 9 17.2656Z" fill="black" />
  <path d="M11.1794 6.18494C10.5934 5.67127 9.82001 5.39001 8.99969 5.39001C8.17938 5.39001 7.40595 5.67322 6.82001 6.18494C6.21063 6.71814 5.8747 7.43494 5.8747 8.20252V8.35095C5.8747 8.43689 5.94501 8.5072 6.03095 8.5072H6.96845C7.05438 8.5072 7.1247 8.43689 7.1247 8.35095V8.20252C7.1247 7.34119 7.96649 6.64002 8.99969 6.64002C10.0329 6.64002 10.8747 7.34119 10.8747 8.20252C10.8747 8.80994 10.445 9.36658 9.77899 9.62244C9.36493 9.78064 9.01337 10.058 8.76141 10.4213C8.50556 10.7924 8.37274 11.2377 8.37274 11.6888V12.1088C8.37274 12.1947 8.44306 12.265 8.52899 12.265H9.46649C9.55243 12.265 9.62274 12.1947 9.62274 12.1088V11.6654C9.62375 11.4758 9.68188 11.2909 9.78953 11.1348C9.89719 10.9787 10.0494 10.8587 10.2263 10.7904C11.3786 10.347 12.1227 9.33142 12.1227 8.20252C12.1247 7.43494 11.7888 6.71814 11.1794 6.18494ZM8.21845 14.2963C8.21845 14.5035 8.30076 14.7022 8.44727 14.8487C8.59378 14.9952 8.79249 15.0775 8.99969 15.0775C9.2069 15.0775 9.40561 14.9952 9.55212 14.8487C9.69864 14.7022 9.78094 14.5035 9.78094 14.2963C9.78094 14.0891 9.69864 13.8904 9.55212 13.7438C9.40561 13.5973 9.2069 13.515 8.99969 13.515C8.79249 13.515 8.59378 13.5973 8.44727 13.7438C8.30076 13.8904 8.21845 14.0891 8.21845 14.2963Z" fill="black" />
</svg>