<svg xmlns="http://www.w3.org/2000/svg" width="14px" height="14px" viewBox="0 0 16 16" fill="none">
<path d="M15.1022 14.1189L10.4647 9.48141C11.1844 8.55106 11.5737 7.41356 11.5737 6.21713C11.5737 4.78499 11.0147 3.44213 10.004 2.42963C8.9933 1.41713 7.64688 0.859985 6.21652 0.859985C4.78616 0.859985 3.43973 1.41891 2.42902 2.42963C1.41652 3.44034 0.859375 4.78499 0.859375 6.21713C0.859375 7.64749 1.4183 8.99391 2.42902 10.0046C3.43973 11.0171 4.78438 11.5743 6.21652 11.5743C7.41295 11.5743 8.54866 11.185 9.47902 10.4671L14.1165 15.1028C14.1301 15.1164 14.1463 15.1272 14.164 15.1346C14.1818 15.142 14.2009 15.1458 14.2201 15.1458C14.2393 15.1458 14.2584 15.142 14.2761 15.1346C14.2939 15.1272 14.3101 15.1164 14.3237 15.1028L15.1022 14.3261C15.1158 14.3125 15.1266 14.2963 15.134 14.2785C15.1414 14.2608 15.1452 14.2417 15.1452 14.2225C15.1452 14.2032 15.1414 14.1842 15.134 14.1664C15.1266 14.1487 15.1158 14.1325 15.1022 14.1189ZM9.04509 9.0457C8.28795 9.80106 7.28438 10.2171 6.21652 10.2171C5.14866 10.2171 4.14509 9.80106 3.38795 9.0457C2.63259 8.28856 2.21652 7.28499 2.21652 6.21713C2.21652 5.14927 2.63259 4.14391 3.38795 3.38856C4.14509 2.6332 5.14866 2.21713 6.21652 2.21713C7.28438 2.21713 8.28973 2.63141 9.04509 3.38856C9.80045 4.1457 10.2165 5.14927 10.2165 6.21713C10.2165 7.28499 9.80045 8.29034 9.04509 9.0457Z" fill="black" fillOpacity="0.45" />
</svg>