<svg xmlns="http://www.w3.org/2000/svg" width="24px" height="24px" viewBox="0 0 24 24" fill="none">
  <g clip-path="url(#clip0_29_14507)">
    <path d="M7.764 19.725C8.354 19.465 9.014 19.416 9.632 19.586C10.402 19.796 11.197 19.902 12 19.9C16.585 19.9 20 16.613 20 12.2C20 7.787 16.585 4.5 12 4.5C7.415 4.5 4 7.787 4 12.2C4 14.47 4.896 16.472 6.466 17.876C6.75126 18.1287 6.98194 18.4369 7.14391 18.7818C7.30589 19.1268 7.39575 19.5011 7.408 19.882L7.764 19.725ZM12 2.5C17.634 2.5 22 6.627 22 12.2C22 17.773 17.634 21.9 12 21.9C11.0221 21.9025 10.0484 21.7733 9.105 21.516C8.9278 21.4673 8.73924 21.4811 8.571 21.555L6.587 22.431C6.46713 22.484 6.33608 22.5067 6.20537 22.4972C6.07467 22.4876 5.94831 22.4461 5.8374 22.3763C5.72649 22.3065 5.63444 22.2105 5.56933 22.0967C5.50422 21.983 5.46805 21.855 5.464 21.724L5.409 19.944C5.4054 19.8358 5.37977 19.7294 5.3337 19.6314C5.28762 19.5334 5.22205 19.4458 5.141 19.374C3.195 17.635 2 15.117 2 12.2C2 6.627 6.367 2.5 12 2.5ZM5.995 15.037L8.932 10.377C9.0425 10.2016 9.18818 10.0509 9.35984 9.93462C9.53149 9.81831 9.7254 9.73886 9.92931 9.70127C10.1332 9.66368 10.3427 9.66878 10.5445 9.71624C10.7464 9.7637 10.9362 9.85249 11.102 9.977L13.438 11.727C13.5421 11.8056 13.669 11.8481 13.7995 11.8481C13.93 11.8481 14.0569 11.8056 14.161 11.727L17.316 9.331C17.737 9.012 18.287 9.516 18.005 9.964L15.068 14.624C14.9575 14.7994 14.8118 14.9501 14.6402 15.0664C14.4685 15.1827 14.2746 15.2621 14.0707 15.2997C13.8668 15.3373 13.6573 15.3322 13.4555 15.2848C13.2536 15.2373 13.0638 15.1485 12.898 15.024L10.562 13.274C10.4579 13.1954 10.331 13.1529 10.2005 13.1529C10.07 13.1529 9.94313 13.1954 9.839 13.274L6.684 15.669C6.263 15.988 5.713 15.484 5.995 15.036V15.037Z" fill="black"/>
  </g>
  <defs>
    <clipPath id="clip0_29_14507">
      <rect width="24px" height="24px" fill="white" transform="translate(0 0.5)"/>
    </clipPath>
  </defs>
</svg>