<svg xmlns="http://www.w3.org/2000/svg" width="24px" height="24px" viewBox="0 0 24 25" fill="none">
  <g clip-path="url(#clip0_29_14501)">
    <path d="M7.25301 18.994L7.97701 19.417C9.19795 20.1291 10.5866 20.5029 12 20.5C13.5823 20.5 15.129 20.0308 16.4446 19.1518C17.7602 18.2727 18.7855 17.0233 19.3911 15.5615C19.9966 14.0997 20.155 12.4911 19.8463 10.9393C19.5376 9.38743 18.7757 7.96197 17.6569 6.84315C16.538 5.72433 15.1126 4.9624 13.5607 4.65372C12.0089 4.34504 10.4004 4.50346 8.93855 5.10896C7.47674 5.71447 6.22731 6.73984 5.34826 8.05544C4.46921 9.37103 4.00001 10.9177 4.00001 12.5C4.00001 13.936 4.37701 15.313 5.08401 16.524L5.50601 17.248L4.85301 19.649L7.25301 18.994ZM2.00401 22.5L3.35601 17.532C2.46515 16.0049 1.99711 14.268 2.00001 12.5C2.00001 6.977 6.47701 2.5 12 2.5C17.523 2.5 22 6.977 22 12.5C22 18.023 17.523 22.5 12 22.5C10.2328 22.5029 8.49667 22.0352 6.97001 21.145L2.00401 22.5ZM8.39101 7.808C8.52501 7.798 8.66001 7.798 8.79401 7.804C8.84801 7.808 8.90201 7.814 8.95601 7.82C9.11501 7.838 9.29001 7.935 9.34901 8.069C9.64701 8.745 9.93701 9.426 10.217 10.109C10.279 10.261 10.242 10.456 10.124 10.646C10.0429 10.7745 9.95507 10.8986 9.86101 11.018C9.74801 11.163 9.50501 11.429 9.50501 11.429C9.50501 11.429 9.40601 11.547 9.44401 11.694C9.45801 11.75 9.50401 11.831 9.54601 11.899L9.60501 11.994C9.86101 12.421 10.205 12.854 10.625 13.262C10.745 13.378 10.862 13.497 10.988 13.608C11.456 14.021 11.986 14.358 12.558 14.608L12.563 14.61C12.648 14.647 12.691 14.667 12.815 14.72C12.877 14.746 12.941 14.769 13.006 14.786C13.0732 14.8031 13.1439 14.7999 13.2093 14.7767C13.2746 14.7536 13.3316 14.7116 13.373 14.656C14.097 13.779 14.163 13.722 14.169 13.722V13.724C14.2193 13.6771 14.2791 13.6415 14.3443 13.6196C14.4095 13.5977 14.4786 13.59 14.547 13.597C14.607 13.601 14.668 13.612 14.724 13.637C15.255 13.88 16.124 14.259 16.124 14.259L16.706 14.52C16.804 14.567 16.893 14.678 16.896 14.785C16.9 14.852 16.906 14.96 16.883 15.158C16.851 15.417 16.773 15.728 16.695 15.891C16.6416 16.0022 16.5707 16.1042 16.485 16.193C16.3841 16.2989 16.2736 16.3954 16.155 16.481C16.114 16.5119 16.0723 16.5419 16.03 16.571C15.9056 16.6499 15.7778 16.7233 15.647 16.791C15.3895 16.9278 15.1052 17.0063 14.814 17.021C14.629 17.031 14.444 17.045 14.258 17.035C14.25 17.035 13.69 16.948 13.69 16.948C12.2683 16.574 10.9534 15.8735 9.85001 14.902C9.62401 14.703 9.41501 14.489 9.20101 14.276C8.31101 13.391 7.63901 12.436 7.23101 11.534C7.02218 11.0913 6.90938 10.6094 6.90001 10.12C6.89589 9.51285 7.09436 8.92167 7.46401 8.44C7.53701 8.346 7.60601 8.248 7.72501 8.135C7.85201 8.015 7.93201 7.951 8.01901 7.907C8.13469 7.84903 8.26088 7.81502 8.39001 7.807L8.39101 7.808Z" fill="black"/>
  </g>
  <defs>
    <clipPath id="clip0_29_14501">
      <rect width="24" height="24" fill="white" transform="translate(0 0.5)"/>
    </clipPath>
  </defs>
</svg>